<svg width="2540" height="800" viewBox="0 0 2540 800" fill="none" xmlns="http://www.w3.org/2000/svg">
<path d="M806.745 261.17C804.875 257.15 802.655 253.51 800.145 250.24C798.495 248.09 796.705 246.1 794.805 244.25C783.135 232.89 767.075 227.14 749.535 225.28C727.095 222.9 702.255 226.9 681.195 233.72C678.045 234.74 674.985 235.82 672.025 236.95C666.425 239.13 660.955 241.63 655.655 244.45C617.565 264.71 587.635 301.03 572.905 345.58C571.575 349.61 570.365 353.71 569.285 357.87C572.365 354.27 575.565 350.85 578.885 347.61C602.725 324.29 632.515 310.43 664.825 310.43C668.415 310.43 671.985 310.6 675.515 310.94C690.935 312.41 705.665 317.05 719.315 324.34C725.895 327.85 732.225 331.97 738.255 336.66C741.795 336.83 745.325 337.21 748.835 337.78C774.765 342.49 797.235 326.23 806.595 304.33C812.335 290.89 813.135 275.33 806.745 261.18V261.17Z" fill="url(#paint0_linear_2043_14566)"/>
<path d="M675.516 310.94C671.986 310.6 668.426 310.43 664.826 310.43C632.516 310.43 602.726 324.29 578.886 347.61C614.556 360.86 644.716 393.11 663.506 436.18C661.026 422.74 659.716 408.72 659.716 394.31C659.716 364.25 665.416 335.91 675.516 310.94Z" fill="url(#paint1_linear_2043_14566)"/>
<path d="M563.125 398.34C563.175 411.53 564.845 424.54 567.935 437.13C593.285 467.54 627.355 486.18 664.825 486.18C669.535 486.18 674.185 485.88 678.765 485.31C671.915 470.18 666.725 453.68 663.505 436.19C644.715 393.12 614.555 360.87 578.885 347.62C576.905 346.89 574.915 346.21 572.905 345.6C572.815 345.57 572.725 345.55 572.635 345.52C570.765 348.97 569.205 352.61 567.935 356.39C565.615 363.3 564.325 378.36 564.325 378.36C564.325 378.36 563.115 391.73 563.145 398.35" fill="url(#paint2_linear_2043_14566)"/>
<path d="M724.465 337.3C729.035 336.59 733.705 336.33 738.395 336.44C732.345 331.96 725.865 327.66 719.315 324.34C719.365 324.46 719.265 324.22 719.315 324.34C705.665 317.05 690.935 312.42 675.515 310.94C665.425 335.91 659.715 364.26 659.715 394.31C659.715 408.72 661.035 422.74 663.505 436.18C666.725 453.66 671.915 470.17 678.765 485.3C678.795 485.3 678.835 485.3 678.865 485.29C699.895 482.64 719.565 474.1 736.885 460.99C736.935 460.57 736.985 460.15 737.035 459.72C729.175 460.44 721.575 459.82 713.155 456.57C669.695 440.82 658.175 383.37 692.175 351.92C701.345 343.27 712.685 338.85 724.465 337.3Z" fill="url(#paint3_linear_2043_14566)"/>
<path d="M672.025 236.95C674.985 235.82 678.045 234.74 681.195 233.72C678.095 234.7 675.045 235.78 672.025 236.95Z" fill="url(#paint4_linear_2043_14566)"/>
<path d="M672.025 236.95C674.985 235.82 678.045 234.74 681.195 233.72C678.095 234.7 675.045 235.78 672.025 236.95Z" fill="url(#paint5_linear_2043_14566)"/>
<path d="M487.596 299.67C484.476 298.05 481.246 296.6 477.886 295.36C477.856 295.39 477.826 295.42 477.806 295.44C477.786 295.39 477.766 295.35 477.746 295.3C475.376 294.42 472.946 293.64 470.466 292.97C476.136 295.01 481.616 297.69 486.826 300.97C487.076 300.53 487.346 300.11 487.606 299.67H487.596Z" fill="url(#paint6_linear_2043_14566)"/>
<path d="M658.765 242.7C654.225 244.92 651.355 241.45 647.725 239.28C605.165 214.04 564.835 226.25 529.445 250.52C529.385 250.78 529.325 251.05 529.265 251.31C525.235 268.15 523.065 286.03 523.065 304.56C523.065 317.5 524.135 330.13 526.145 342.31C531.515 341.45 536.965 340.99 542.505 340.99C552.945 340.99 563.115 342.59 572.915 345.59C587.645 301.04 617.575 264.72 655.665 244.46C660.965 241.64 666.435 239.13 672.035 236.96C667.325 238.76 662.865 240.69 658.775 242.71L658.765 242.7Z" fill="url(#paint7_linear_2043_14566)"/>
<path d="M790.806 575.41C790.906 575.17 791.006 574.93 791.106 574.69C790.686 574.9 790.266 575.1 789.836 575.31C790.156 575.34 790.486 575.38 790.806 575.41Z" fill="url(#paint8_linear_2043_14566)"/>
<path d="M806.566 489.021C798.026 468.551 777.606 453.471 747.136 458.211C744.276 458.771 741.496 459.231 738.756 459.551C738.136 460.041 737.506 460.511 736.876 460.991C719.566 474.111 699.886 482.651 678.856 485.291C678.886 485.421 678.906 485.551 678.936 485.681C678.876 485.551 678.816 485.431 678.756 485.301C674.166 485.871 669.516 486.171 664.816 486.171C627.346 486.171 593.276 467.541 567.926 437.121C582.206 495.291 626.906 544.661 683.246 563.351C687.716 564.831 692.266 566.111 696.876 567.201C717.406 572.031 739.206 572.811 761.446 568.571C761.966 568.471 762.486 568.391 763.006 568.291C780.076 564.981 792.386 556.591 800.266 545.811C812.396 529.241 814.076 507.041 806.556 489.021H806.566Z" fill="url(#paint9_linear_2043_14566)"/>
<path d="M678.775 485.301C678.835 485.431 678.895 485.551 678.955 485.681C678.925 485.551 678.905 485.421 678.875 485.291C678.845 485.291 678.805 485.291 678.775 485.301Z" fill="url(#paint10_linear_2043_14566)"/>
<path d="M678.775 485.301C678.835 485.431 678.895 485.551 678.955 485.681C678.925 485.551 678.905 485.421 678.875 485.291C678.845 485.291 678.805 485.291 678.775 485.301Z" fill="url(#paint11_linear_2043_14566)"/>
<path d="M678.775 485.301C678.835 485.431 678.895 485.551 678.955 485.681C678.925 485.551 678.905 485.421 678.875 485.291C678.845 485.291 678.805 485.291 678.775 485.301Z" fill="url(#paint12_linear_2043_14566)"/>
<path d="M678.775 485.301C678.835 485.431 678.895 485.551 678.955 485.681C678.925 485.551 678.905 485.421 678.875 485.291C678.845 485.291 678.805 485.291 678.775 485.301Z" fill="url(#paint13_linear_2043_14566)"/>
<path d="M678.775 485.301C678.835 485.431 678.895 485.551 678.955 485.681C678.925 485.551 678.905 485.421 678.875 485.291C678.845 485.291 678.805 485.291 678.775 485.301Z" fill="url(#paint14_linear_2043_14566)"/>
<path d="M678.775 485.301C678.835 485.431 678.895 485.551 678.955 485.681C678.925 485.551 678.905 485.421 678.875 485.291C678.845 485.291 678.805 485.291 678.775 485.301Z" fill="url(#paint15_linear_2043_14566)"/>
<path d="M738.767 459.541C738.187 459.611 737.617 459.661 737.037 459.711C736.987 460.131 736.937 460.551 736.887 460.981C737.517 460.501 738.147 460.031 738.767 459.541Z" fill="url(#paint16_linear_2043_14566)"/>
<path d="M738.767 459.541C738.187 459.611 737.617 459.661 737.037 459.711C736.987 460.131 736.937 460.551 736.887 460.981C737.517 460.501 738.147 460.031 738.767 459.541Z" fill="url(#paint17_linear_2043_14566)"/>
<path d="M738.767 459.541C738.187 459.611 737.617 459.661 737.037 459.711C736.987 460.131 736.937 460.551 736.887 460.981C737.517 460.501 738.147 460.031 738.767 459.541Z" fill="url(#paint18_linear_2043_14566)"/>
<path d="M738.767 459.541C738.187 459.611 737.617 459.661 737.037 459.711C736.987 460.131 736.937 460.551 736.887 460.981C737.517 460.501 738.147 460.031 738.767 459.541Z" fill="url(#paint19_linear_2043_14566)"/>
<path d="M738.767 459.541C738.187 459.611 737.617 459.661 737.037 459.711C736.987 460.131 736.937 460.551 736.887 460.981C737.517 460.501 738.147 460.031 738.767 459.541Z" fill="url(#paint20_linear_2043_14566)"/>
<path d="M404.315 412.211C404.675 445.391 400.095 482.241 400.135 514.101C399.955 518.351 400.285 522.461 401.045 526.411C403.925 465.531 426.355 412.161 459.605 378.501C459.625 378.371 459.645 378.251 459.675 378.121C443.475 394.651 424.685 406.501 404.315 412.221V412.211Z" fill="url(#paint21_linear_2043_14566)"/>
<path d="M404.315 412.211C404.675 445.391 400.095 482.241 400.135 514.101C399.955 518.351 400.285 522.461 401.045 526.411C403.925 465.531 426.355 412.161 459.605 378.501C459.625 378.371 459.645 378.251 459.675 378.121C443.475 394.651 424.685 406.501 404.315 412.221V412.211Z" fill="url(#paint22_linear_2043_14566)"/>
<path d="M404.315 412.211C404.675 445.391 400.095 482.241 400.135 514.101C399.955 518.351 400.285 522.461 401.045 526.411C403.925 465.531 426.355 412.161 459.605 378.501C459.625 378.371 459.645 378.251 459.675 378.121C443.475 394.651 424.685 406.501 404.315 412.221V412.211Z" fill="url(#paint23_linear_2043_14566)"/>
<path d="M375.135 325.31C341.105 325.57 309.905 342.63 285.565 370.9C257.465 403.52 238.495 451.05 234.815 504.84C235.185 514.92 236.065 524.46 239.855 534.17C264.645 594.9 348.115 574.55 348.485 515.13C348.505 511.17 348.165 507.03 347.405 502.74C345.615 491.67 344.495 480.71 343.935 469.79C342.945 450.56 343.695 431.43 345.685 411.95C345.725 411.56 345.765 411.17 345.805 410.78C345.945 409.44 346.085 408.11 346.235 406.77C346.935 400.62 347.755 391.66 349.345 382.37C351.605 371.83 354.865 361.85 358.975 352.59C363.435 342.56 368.895 333.39 375.175 325.31C375.155 325.31 375.145 325.31 375.125 325.31H375.135Z" fill="url(#paint24_linear_2043_14566)"/>
<path d="M235.226 504.441C238.906 450.651 257.876 403.111 285.976 370.491C257.876 403.111 238.906 450.641 235.226 504.441Z" fill="url(#paint25_linear_2043_14566)"/>
<path d="M235.226 504.441C238.906 450.651 257.876 403.111 285.976 370.491C257.876 403.111 238.906 450.641 235.226 504.441Z" fill="url(#paint26_linear_2043_14566)"/>
<path d="M514.565 261.6C503.145 270.76 492.325 280.88 482.225 290.98C480.875 292.33 479.535 293.68 478.215 295.02C453.985 242.66 397.955 212.17 342.865 230.8C325.335 237.88 310.615 248.08 298.245 260.56C280.095 278.73 267.005 301.81 257.605 327.24C238.015 380.24 234.435 443.41 234.485 493.56C234.605 497.42 234.675 501.16 234.815 504.84C238.495 451.05 257.465 403.51 285.565 370.89C285.695 370.74 285.825 370.6 285.945 370.45C285.945 370.45 285.965 370.47 285.965 370.48C288.245 367.84 290.575 365.29 292.975 362.85C316.095 339.42 344.465 325.54 375.135 325.3C375.245 325.16 375.355 325.03 375.475 324.89C375.495 324.89 375.525 324.89 375.545 324.89C375.875 324.48 376.205 324.09 376.535 323.69C379.215 320.34 382.035 317.19 384.985 314.25C401.475 297.98 422.005 288.34 444.245 288.34C453.325 288.34 462.105 289.96 470.455 292.96C472.665 293.56 474.825 294.26 476.955 295.02C480.475 296.62 483.895 298.46 487.225 300.54C495.005 287.09 504.005 275.08 514.005 264.87C518.865 259.91 523.965 255.36 529.265 251.28C529.325 251.02 529.385 250.75 529.445 250.49C524.385 253.96 519.415 257.68 514.565 261.58V261.6Z" fill="url(#paint27_linear_2043_14566)"/>
<path d="M375.546 324.9C341.516 325.16 310.316 342.22 285.976 370.49C310.316 342.23 341.516 325.16 375.546 324.9Z" fill="url(#paint28_linear_2043_14566)"/>
<path d="M375.545 324.901C375.545 324.901 375.575 324.901 375.595 324.901C375.905 324.501 376.215 324.091 376.535 323.701C376.205 324.101 375.875 324.501 375.545 324.901Z" fill="url(#paint29_linear_2043_14566)"/>
<path d="M375.545 324.901C375.545 324.901 375.575 324.901 375.595 324.901C375.905 324.501 376.215 324.091 376.535 323.701C376.205 324.101 375.875 324.501 375.545 324.901Z" fill="url(#paint30_linear_2043_14566)"/>
<path d="M375.545 324.901C375.545 324.901 375.575 324.901 375.595 324.901C375.905 324.501 376.215 324.091 376.535 323.701C376.205 324.101 375.875 324.501 375.545 324.901Z" fill="url(#paint31_linear_2043_14566)"/>
<path d="M376.535 323.701C376.205 324.101 375.875 324.501 375.545 324.901C375.875 324.491 376.205 324.101 376.535 323.701Z" fill="url(#paint32_linear_2043_14566)"/>
<path d="M376.535 323.701C376.205 324.101 375.875 324.501 375.545 324.901C375.875 324.491 376.205 324.101 376.535 323.701Z" fill="url(#paint33_linear_2043_14566)"/>
<path d="M376.535 323.701C376.205 324.101 375.875 324.501 375.545 324.901C375.875 324.491 376.205 324.101 376.535 323.701Z" fill="url(#paint34_linear_2043_14566)"/>
<path d="M376.535 323.701C376.205 324.101 375.875 324.501 375.545 324.901C375.875 324.491 376.205 324.101 376.535 323.701Z" fill="url(#paint35_linear_2043_14566)"/>
<path d="M489.925 299.31C486.805 297.69 481.575 296.24 478.215 295C478.165 294.98 478.115 294.97 478.065 294.95C477.805 294.86 477.545 294.77 477.285 294.68C477.165 294.62 477.035 294.57 476.915 294.52C476.405 294.29 475.885 294.06 475.375 293.84C474.955 293.66 474.535 293.5 474.115 293.33C473.775 293.19 473.435 293.06 473.095 292.92C472.675 292.76 472.265 292.6 471.845 292.44C471.475 292.3 471.115 292.17 470.745 292.04C470.285 291.88 469.815 291.71 469.355 291.56C468.735 291.35 468.115 291.15 467.485 290.96C467.115 290.85 466.745 290.74 466.375 290.63C465.945 290.51 465.515 290.38 465.085 290.27C464.715 290.17 464.355 290.07 463.985 289.98C463.475 289.85 462.965 289.73 462.465 289.61C462.175 289.54 461.895 289.47 461.605 289.41C460.845 289.24 460.085 289.09 459.325 288.94C459.025 288.88 458.725 288.83 458.415 288.78C457.875 288.68 457.335 288.59 456.785 288.51C456.485 288.46 456.185 288.42 455.885 288.37C455.195 288.27 454.505 288.18 453.815 288.1C453.675 288.08 453.545 288.06 453.405 288.05C452.585 287.96 451.765 287.88 450.935 287.82C450.685 287.8 450.425 287.78 450.175 287.77C449.555 287.73 448.935 287.69 448.305 287.67C448.055 287.66 447.795 287.65 447.535 287.64C446.685 287.61 445.835 287.59 444.985 287.59C418.565 287.59 394.236 301.557 376.536 323.707C376.536 323.707 376.536 323.707 376.546 323.697C377.266 322.827 377.996 321.977 378.726 321.147C377.986 321.997 377.246 322.847 376.526 323.727C376.206 324.127 375.896 324.527 375.586 324.927C369.306 333.007 363.836 342.177 359.386 352.207C362.926 346.587 367.516 342.747 373.536 342.127C391.166 340.317 397.316 358.317 400.496 372.837C403.126 384.877 404.156 398.227 404.306 412.237C424.676 406.517 445.795 394.32 461.995 377.78C462.745 373.52 463.585 369.32 464.515 365.17C469.635 342.56 477.555 321.7 487.715 303.4C488.315 302.33 488.935 301.28 489.545 300.23C489.505 300.21 489.465 300.18 489.425 300.16C489.585 299.89 489.755 299.62 489.915 299.34L489.925 299.31ZM379.266 320.517C379.996 319.687 380.746 318.867 381.496 318.067C381.496 318.067 381.506 318.047 381.516 318.047C382.306 317.207 383.116 316.387 383.926 315.577C382.336 317.157 380.786 318.807 379.266 320.517ZM384.306 315.207C385.106 314.417 385.916 313.637 386.736 312.877C385.916 313.637 385.106 314.427 384.296 315.217L384.306 315.207Z" fill="url(#paint36_linear_2043_14566)"/>
<path d="M542.495 340.98C536.965 340.98 531.505 341.44 526.135 342.3C525.805 342.35 525.475 342.42 525.155 342.47C523.575 342.74 521.995 343.03 520.435 343.37C501.165 347.59 483.185 357.26 467.315 371.21C464.695 373.52 462.125 375.94 459.615 378.47C456.985 393.6 455.585 409.4 455.585 425.67C455.585 467.04 464.605 505.45 480.035 537.26C483.465 544.33 487.205 551.09 491.245 557.47C491.325 557.6 491.415 557.74 491.495 557.87C493.975 555.83 496.275 553.59 498.375 551.18C506.745 541.53 511.795 529.07 511.555 515.08C511.535 513.93 511.535 512.76 511.535 511.6C511.505 500.07 512.315 488.06 513.995 475.9C517.775 448.53 525.995 420.48 539.125 395.86C539.695 394.79 540.275 393.72 540.865 392.67C541.025 392.38 541.195 392.1 541.355 391.82C548.755 378.72 557.585 366.68 567.945 356.36C569.215 352.58 570.785 348.95 572.645 345.49C562.935 342.54 552.855 340.97 542.505 340.97L542.495 340.98Z" fill="url(#paint37_linear_2043_14566)"/>
<path d="M529.255 251.3C523.955 255.38 518.855 259.92 513.995 264.89C508.995 269.99 504.245 275.55 499.775 281.51C495.305 287.47 491.105 293.83 487.215 300.56C486.605 301.62 485.985 302.66 485.385 303.73C475.225 322.03 467.305 342.89 462.185 365.5C461.245 369.64 460.405 373.85 459.665 378.11C443.465 394.64 424.675 406.49 404.305 412.21C404.665 445.39 400.085 482.24 400.125 514.1C399.945 518.35 400.275 522.46 401.035 526.41C401.535 528.97 402.235 531.45 403.095 533.86C413.535 563.23 449.315 580.2 479.045 565.8C479.765 565.45 480.495 565.09 481.205 564.7C484.875 562.78 488.315 560.5 491.465 557.91C491.385 557.78 491.295 557.64 491.215 557.51C487.175 551.13 483.435 544.37 480.005 537.3C464.575 505.49 455.555 467.08 455.555 425.71C455.555 409.44 456.955 393.64 459.585 378.51C462.095 375.97 464.655 373.55 467.285 371.25C483.155 357.3 501.135 347.63 520.405 343.41C521.975 343.07 523.545 342.77 525.125 342.51C525.455 342.45 525.785 342.39 526.105 342.34C524.095 330.16 523.025 317.54 523.025 304.59C523.025 286.06 525.195 268.18 529.225 251.34L529.255 251.3Z" fill="url(#paint38_linear_2043_14566)"/>
<g clip-path="url(#clip0_2043_14566)">
<path d="M1006.26 387.019L1005.72 463.969C1005.69 468.459 1000.64 469.939 997.437 470.149C994.237 470.359 987.877 469.279 987.827 464.509L987.167 389.529C987.057 376.469 979.737 364.639 969.237 359.009C957.587 352.749 941.887 353.559 932.187 362.189C924.487 369.029 920.437 379.389 920.357 389.849L919.797 463.029C919.757 468.419 914.737 470.669 910.607 470.709C906.477 470.749 901.227 468.469 901.227 463.029L901.247 388.439C901.247 359.659 922.637 338.139 951.157 337.329C969.907 336.789 987.047 344.329 996.377 362.219C1004.8 345.499 1020.5 338.289 1038.1 337.349C1059.97 336.189 1079.52 346.989 1087.43 367.889C1090.62 376.309 1092.15 385.549 1092.29 394.919C1092.64 418.439 1092.63 441.419 1091.77 464.829C1091.58 469.969 1084.5 471.129 1081.19 470.589C1076.49 469.819 1073.46 465.399 1073.44 460.049L1073.27 391.279C1073.25 382.589 1070.87 373.559 1065.68 366.659C1057.19 355.369 1042.46 352.399 1028.48 356.759C1017.06 360.319 1006.35 372.819 1006.25 387.019H1006.26Z" fill="#00032C"/>
<path d="M1757.25 397.969C1760.71 365.069 1784.58 340.389 1817.33 337.539C1838.91 335.659 1857.85 343.439 1873.06 361.239L1873.29 296.499C1873.31 291.169 1876.51 287.489 1881.1 286.729C1884.48 286.169 1891.5 287.499 1891.48 293.169L1891.25 408.589C1891.17 448.179 1857.23 474.679 1818.92 472.479C1780.61 470.279 1753.21 436.439 1757.25 397.979V397.969ZM1853.32 444.999C1877.01 426.959 1879.11 393.329 1860.2 370.969C1846.84 355.169 1824.26 351.119 1804.94 359.039C1787.15 366.329 1775.42 385.219 1775.63 405.149C1775.83 424.009 1785.33 440.499 1800.95 448.839C1817.26 457.559 1837.95 456.709 1853.32 444.999Z" fill="#00032C"/>
<path d="M2102.95 380.59C2111.32 406.31 2107.05 433.29 2088.32 452.57C2062.5 479.15 2018.54 479.48 1992.38 452.97C1979.26 439.68 1972.24 421.16 1972.23 402.34L1972.16 297.51C1972.16 290.84 1975.86 286.73 1981.62 286.66C1987.38 286.59 1990.95 290.82 1990.93 297.43L1990.76 361.53L1996.78 354.67C2011.56 337.84 2036.35 333.64 2059.4 339.98C2078.12 345.13 2096.12 359.65 2102.93 380.59H2102.95ZM2017.28 448.72C2036.69 459.11 2060.14 455.9 2074.87 439.91C2093.2 420.02 2092.97 387.97 2073.71 368.72C2059.2 354.22 2036.27 351.07 2018.04 360.07C2001.41 368.29 1991.76 386.2 1991.52 403.8C1991.28 421.4 2000.44 439.71 2017.28 448.72Z" fill="#00032C"/>
<path d="M2238.65 454.56C2276.08 457.03 2279.61 430.03 2291.97 439.99C2295.84 443.11 2295.99 448.99 2292.49 452.69C2266.98 479.68 2217.97 479.64 2191.65 450.89C2177.75 435.71 2172.42 415.31 2175 395.28C2180 356.48 2215.15 331.26 2253.25 338.49C2303.58 348.04 2309.62 400.5 2303.63 409.33C2302.54 410.94 2298.7 412.23 2296.14 412.23L2193.61 412.13C2195.49 435.81 2214.74 452.99 2238.65 454.57V454.56ZM2193.81 394.74L2286.95 394.82C2284.63 379.73 2276.32 366.25 2262.49 359.78C2248.33 353.16 2232.29 353.96 2218.03 359.92C2205.27 367.29 2196.41 379.87 2193.81 394.74Z" fill="#00032C"/>
<path d="M1656.92 450.279C1677.11 459.349 1699.67 453.769 1715.82 440.159C1719.75 436.849 1725.68 438.229 1728.22 441.659C1730.58 444.849 1730.49 450.739 1726.66 454.169C1707.66 471.189 1680.5 477.069 1655.89 469.179C1630.19 460.949 1611.95 438.029 1610.12 411.589C1608.63 390.099 1615.06 372.119 1629.92 356.669C1651.17 334.569 1687.37 330.679 1713.13 348.349C1731.87 361.199 1741.48 382.569 1740.77 404.829C1740.64 409.079 1737.17 412.159 1732.97 412.159L1628.8 412.189C1630.26 429.409 1641.08 443.169 1656.9 450.279H1656.92ZM1722.28 394.819C1718.54 368.839 1697.82 352.859 1672.25 355.079C1650.42 356.979 1632.64 372.129 1629.46 395.029L1722.27 394.819H1722.28Z" fill="#00032C"/>
<path d="M1231.92 464.19L1230.82 447.8C1216.97 466.27 1195.88 474.51 1172.96 472.11C1140.93 468.75 1117.38 442.35 1115.1 410.36C1113.46 387.41 1122.35 366.47 1139.23 352.42C1156.91 337.72 1181.17 333.69 1203.16 340.47C1229.86 348.71 1248.35 371.42 1249.27 399.77C1249.99 421.85 1249.85 443.5 1249.4 465.64C1249.32 469.88 1243.37 470.95 1240.73 470.87C1237.35 470.77 1232.25 469.1 1231.92 464.19ZM1222.07 434.16C1240.67 408.09 1230.31 369.41 1200.36 358.18C1183.89 352 1165.35 355.05 1152.36 365.38C1139.22 375.83 1132.77 390.82 1133.78 408.34C1134.97 428.87 1149.01 446.86 1168.02 452.54C1188.26 458.59 1209.87 451.25 1222.07 434.15V434.16Z" fill="#00032C"/>
<path d="M1448.36 453.259C1467.98 457.829 1486.22 451.049 1499.24 437.499C1502.9 433.689 1507.88 432.779 1511.64 435.509C1526.07 446.019 1491.8 477.579 1451.12 471.989C1430.11 469.099 1409.7 456.369 1399.44 436.139C1392.6 422.659 1391.52 407.669 1393.87 392.729C1399.04 359.759 1427.84 336.789 1461.15 337.309C1496.67 337.859 1522.92 364.319 1511.93 374.689C1509.11 377.349 1502.5 377.899 1499.4 373.949C1487.57 358.929 1469.49 352.079 1450.03 356.189C1427.45 360.949 1411.66 381.069 1411.26 403.959C1410.87 426.089 1425.7 447.989 1448.39 453.269L1448.36 453.259Z" fill="#00032C"/>
<path d="M1381.21 458.069C1383.91 461.379 1382.27 466.579 1379.89 468.689C1377.51 470.799 1370.78 472.449 1367.88 469.209C1353.19 452.769 1340.03 435.509 1326.22 417.579L1287.13 466.199C1285.24 468.549 1281.74 470.529 1279.44 470.689C1275.87 470.949 1272.88 469.489 1270.23 466.889C1269.24 462.919 1270.19 459.159 1272.88 455.829L1314.44 404.369L1273.77 353.919C1270.52 349.889 1270.71 344.089 1274.27 341.049C1277.21 338.539 1283.52 337.849 1286.68 341.869L1325.37 391.059L1364.72 342.259C1367.99 338.209 1374.17 338.469 1377.36 340.619C1381.28 343.259 1381.66 349.559 1378.23 353.719L1340.72 399.109C1338.81 401.419 1337.16 404.009 1339.34 406.689L1381.2 458.069H1381.21Z" fill="#00032C"/>
<path d="M2149.75 459.609C2149.75 467.139 2146.78 470.599 2140.4 470.909C2134.41 471.199 2130.44 467.009 2130.45 459.749L2130.74 295.989C2130.76 289.809 2136.12 286.589 2140.57 286.589C2146.96 286.589 2149.69 290.989 2149.7 297.609L2149.76 459.599L2149.75 459.609Z" fill="#00032C"/>
<path d="M1556.22 397.049L1555.8 464.889C1555.77 470.279 1548.59 471.109 1545.15 470.659C1540 469.989 1537.26 465.759 1537.3 460.199L1537.67 394.729C1537.85 362.499 1563.88 336.999 1595.86 337.759C1601.78 337.899 1606.1 341.299 1605.76 346.609C1604.66 364.269 1581.25 346.939 1565.44 368.729C1559.68 376.669 1556.29 386.439 1556.22 397.049Z" fill="#00032C"/>
<path d="M1940.61 464.319C1940.61 470.229 1933.49 471.179 1930.06 470.789C1925.13 470.239 1921.66 466.569 1921.65 460.929L1921.54 350.429C1921.54 344.489 1923.69 340.489 1929.47 339.349C1933.34 338.579 1940.76 340.509 1940.75 346.619L1940.61 464.319Z" fill="#00032C"/>
<path d="M1928.15 294.029C1935.51 292.209 1942.12 295.999 1943.71 302.289C1945.44 309.149 1942.34 316.229 1935.18 317.759C1929.1 319.059 1922.08 316.249 1919.88 310.079C1917.68 303.909 1920.53 295.899 1928.16 294.019L1928.15 294.029Z" fill="#00032C"/>
</g>
<defs>
<linearGradient id="paint0_linear_2043_14566" x1="569.485" y1="357.59" x2="594.31" y2="131.658" gradientUnits="userSpaceOnUse">
<stop stop-color="#0011FF"/>
<stop offset="1" stop-color="#28B7FF"/>
</linearGradient>
<linearGradient id="paint1_linear_2043_14566" x1="579.158" y1="430.429" x2="686.864" y2="382.669" gradientUnits="userSpaceOnUse">
<stop stop-color="#28B7FF"/>
<stop offset="1" stop-color="#0011FF"/>
</linearGradient>
<linearGradient id="paint2_linear_2043_14566" x1="563.451" y1="479.747" x2="689.353" y2="420.017" gradientUnits="userSpaceOnUse">
<stop stop-color="#28B7FF"/>
<stop offset="1" stop-color="#0011FF"/>
</linearGradient>
<linearGradient id="paint3_linear_2043_14566" x1="801.484" y1="398.59" x2="659.72" y2="398.12" gradientUnits="userSpaceOnUse">
<stop stop-color="#28B7FF"/>
<stop offset="1" stop-color="#0011FF"/>
</linearGradient>
<linearGradient id="paint4_linear_2043_14566" x1="676.61" y1="236.95" x2="676.61" y2="233.72" gradientUnits="userSpaceOnUse">
<stop offset="0.5" stop-color="#0011FF"/>
<stop offset="1" stop-color="#28B7FF"/>
</linearGradient>
<linearGradient id="paint5_linear_2043_14566" x1="676.61" y1="236.95" x2="676.61" y2="233.72" gradientUnits="userSpaceOnUse">
<stop offset="0.5" stop-color="#0011FF"/>
<stop offset="1" stop-color="#28B7FF"/>
</linearGradient>
<linearGradient id="paint6_linear_2043_14566" x1="479.036" y1="300.97" x2="479.036" y2="292.97" gradientUnits="userSpaceOnUse">
<stop offset="0.5" stop-color="#0011FF"/>
<stop offset="1" stop-color="#28B7FF"/>
</linearGradient>
<linearGradient id="paint7_linear_2043_14566" x1="423.985" y1="329.09" x2="654.985" y2="246.09" gradientUnits="userSpaceOnUse">
<stop stop-color="#28B7FF"/>
<stop offset="1" stop-color="#0011FF"/>
</linearGradient>
<linearGradient id="paint8_linear_2043_14566" x1="789.835" y1="575.028" x2="790.087" y2="574.342" gradientUnits="userSpaceOnUse">
<stop stop-color="#0011FF"/>
<stop offset="1" stop-color="#28B7FF"/>
</linearGradient>
<linearGradient id="paint9_linear_2043_14566" x1="567.719" y1="500.001" x2="613.692" y2="371.438" gradientUnits="userSpaceOnUse">
<stop stop-color="#0011FF"/>
<stop offset="1" stop-color="#28B7FF"/>
</linearGradient>
<linearGradient id="paint10_linear_2043_14566" x1="678.865" y1="485.681" x2="678.865" y2="485.291" gradientUnits="userSpaceOnUse">
<stop offset="0.5" stop-color="#0011FF"/>
<stop offset="1" stop-color="#28B7FF"/>
</linearGradient>
<linearGradient id="paint11_linear_2043_14566" x1="678.865" y1="485.681" x2="678.865" y2="485.291" gradientUnits="userSpaceOnUse">
<stop offset="0.5" stop-color="#0011FF"/>
<stop offset="1" stop-color="#28B7FF"/>
</linearGradient>
<linearGradient id="paint12_linear_2043_14566" x1="678.865" y1="485.681" x2="678.865" y2="485.291" gradientUnits="userSpaceOnUse">
<stop offset="0.5" stop-color="#0011FF"/>
<stop offset="1" stop-color="#28B7FF"/>
</linearGradient>
<linearGradient id="paint13_linear_2043_14566" x1="678.865" y1="485.681" x2="678.865" y2="485.291" gradientUnits="userSpaceOnUse">
<stop offset="0.5" stop-color="#0011FF"/>
<stop offset="1" stop-color="#28B7FF"/>
</linearGradient>
<linearGradient id="paint14_linear_2043_14566" x1="678.865" y1="485.681" x2="678.865" y2="485.291" gradientUnits="userSpaceOnUse">
<stop offset="0.5" stop-color="#0011FF"/>
<stop offset="1" stop-color="#28B7FF"/>
</linearGradient>
<linearGradient id="paint15_linear_2043_14566" x1="678.865" y1="485.681" x2="678.865" y2="485.291" gradientUnits="userSpaceOnUse">
<stop offset="0.5" stop-color="#0011FF"/>
<stop offset="1" stop-color="#28B7FF"/>
</linearGradient>
<linearGradient id="paint16_linear_2043_14566" x1="737.827" y1="460.981" x2="737.827" y2="459.541" gradientUnits="userSpaceOnUse">
<stop offset="0.5" stop-color="#0011FF"/>
<stop offset="1" stop-color="#28B7FF"/>
</linearGradient>
<linearGradient id="paint17_linear_2043_14566" x1="737.827" y1="460.981" x2="737.827" y2="459.541" gradientUnits="userSpaceOnUse">
<stop offset="0.5" stop-color="#0011FF"/>
<stop offset="1" stop-color="#28B7FF"/>
</linearGradient>
<linearGradient id="paint18_linear_2043_14566" x1="737.827" y1="460.981" x2="737.827" y2="459.541" gradientUnits="userSpaceOnUse">
<stop offset="0.5" stop-color="#0011FF"/>
<stop offset="1" stop-color="#28B7FF"/>
</linearGradient>
<linearGradient id="paint19_linear_2043_14566" x1="737.827" y1="460.981" x2="737.827" y2="459.541" gradientUnits="userSpaceOnUse">
<stop offset="0.5" stop-color="#0011FF"/>
<stop offset="1" stop-color="#28B7FF"/>
</linearGradient>
<linearGradient id="paint20_linear_2043_14566" x1="737.827" y1="460.981" x2="737.827" y2="459.541" gradientUnits="userSpaceOnUse">
<stop offset="0.5" stop-color="#0011FF"/>
<stop offset="1" stop-color="#28B7FF"/>
</linearGradient>
<linearGradient id="paint21_linear_2043_14566" x1="429.881" y1="526.411" x2="429.881" y2="378.121" gradientUnits="userSpaceOnUse">
<stop offset="0.5" stop-color="#0011FF"/>
<stop offset="1" stop-color="#28B7FF"/>
</linearGradient>
<linearGradient id="paint22_linear_2043_14566" x1="429.881" y1="526.411" x2="429.881" y2="378.121" gradientUnits="userSpaceOnUse">
<stop offset="0.5" stop-color="#0011FF"/>
<stop offset="1" stop-color="#28B7FF"/>
</linearGradient>
<linearGradient id="paint23_linear_2043_14566" x1="429.881" y1="526.411" x2="429.881" y2="378.121" gradientUnits="userSpaceOnUse">
<stop offset="0.5" stop-color="#0011FF"/>
<stop offset="1" stop-color="#28B7FF"/>
</linearGradient>
<linearGradient id="paint24_linear_2043_14566" x1="304.995" y1="570.895" x2="407.985" y2="288.09" gradientUnits="userSpaceOnUse">
<stop offset="0.5" stop-color="#0011FF"/>
<stop offset="1" stop-color="#28B7FF"/>
</linearGradient>
<linearGradient id="paint25_linear_2043_14566" x1="260.601" y1="504.441" x2="260.601" y2="370.491" gradientUnits="userSpaceOnUse">
<stop offset="0.5" stop-color="#0011FF"/>
<stop offset="1" stop-color="#28B7FF"/>
</linearGradient>
<linearGradient id="paint26_linear_2043_14566" x1="260.601" y1="504.441" x2="260.601" y2="370.491" gradientUnits="userSpaceOnUse">
<stop offset="0.5" stop-color="#0011FF"/>
<stop offset="1" stop-color="#28B7FF"/>
</linearGradient>
<linearGradient id="paint27_linear_2043_14566" x1="358.485" y1="225.59" x2="234.485" y2="504.59" gradientUnits="userSpaceOnUse">
<stop stop-color="#0011FF"/>
<stop offset="1" stop-color="#28B7FF"/>
</linearGradient>
<linearGradient id="paint28_linear_2043_14566" x1="330.761" y1="370.49" x2="330.761" y2="324.9" gradientUnits="userSpaceOnUse">
<stop offset="0.5" stop-color="#0011FF"/>
<stop offset="1" stop-color="#28B7FF"/>
</linearGradient>
<linearGradient id="paint29_linear_2043_14566" x1="376.04" y1="324.901" x2="376.04" y2="323.701" gradientUnits="userSpaceOnUse">
<stop offset="0.5" stop-color="#0011FF"/>
<stop offset="1" stop-color="#28B7FF"/>
</linearGradient>
<linearGradient id="paint30_linear_2043_14566" x1="376.04" y1="324.901" x2="376.04" y2="323.701" gradientUnits="userSpaceOnUse">
<stop offset="0.5" stop-color="#0011FF"/>
<stop offset="1" stop-color="#28B7FF"/>
</linearGradient>
<linearGradient id="paint31_linear_2043_14566" x1="376.04" y1="324.901" x2="376.04" y2="323.701" gradientUnits="userSpaceOnUse">
<stop offset="0.5" stop-color="#0011FF"/>
<stop offset="1" stop-color="#28B7FF"/>
</linearGradient>
<linearGradient id="paint32_linear_2043_14566" x1="376.04" y1="324.901" x2="376.04" y2="323.701" gradientUnits="userSpaceOnUse">
<stop offset="0.5" stop-color="#0011FF"/>
<stop offset="1" stop-color="#28B7FF"/>
</linearGradient>
<linearGradient id="paint33_linear_2043_14566" x1="376.04" y1="324.901" x2="376.04" y2="323.701" gradientUnits="userSpaceOnUse">
<stop offset="0.5" stop-color="#0011FF"/>
<stop offset="1" stop-color="#28B7FF"/>
</linearGradient>
<linearGradient id="paint34_linear_2043_14566" x1="376.04" y1="324.901" x2="376.04" y2="323.701" gradientUnits="userSpaceOnUse">
<stop offset="0.5" stop-color="#0011FF"/>
<stop offset="1" stop-color="#28B7FF"/>
</linearGradient>
<linearGradient id="paint35_linear_2043_14566" x1="376.04" y1="324.901" x2="376.04" y2="323.701" gradientUnits="userSpaceOnUse">
<stop offset="0.5" stop-color="#0011FF"/>
<stop offset="1" stop-color="#28B7FF"/>
</linearGradient>
<linearGradient id="paint36_linear_2043_14566" x1="441.485" y1="180.09" x2="424.656" y2="412.233" gradientUnits="userSpaceOnUse">
<stop stop-color="#28B7FF"/>
<stop offset="1" stop-color="#0011FF"/>
</linearGradient>
<linearGradient id="paint37_linear_2043_14566" x1="463.485" y1="557.59" x2="570.725" y2="346.59" gradientUnits="userSpaceOnUse">
<stop stop-color="#28B7FF"/>
<stop offset="1" stop-color="#0011FF"/>
</linearGradient>
<linearGradient id="paint38_linear_2043_14566" x1="561.985" y1="59.0903" x2="464.666" y2="571.005" gradientUnits="userSpaceOnUse">
<stop stop-color="#28B7FF"/>
<stop offset="1" stop-color="#0011FF"/>
</linearGradient>
<clipPath id="clip0_2043_14566">
<rect width="1404.29" height="186.1" fill="white" transform="translate(901.227 286.589)"/>
</clipPath>
</defs>
</svg>
