<svg width="800" height="800" viewBox="0 0 800 800" fill="none" xmlns="http://www.w3.org/2000/svg">
<path d="M683.89 261.17C682.02 257.15 679.8 253.51 677.29 250.24C675.64 248.09 673.85 246.1 671.95 244.25C660.28 232.89 644.22 227.14 626.68 225.28C604.24 222.9 579.4 226.9 558.34 233.72C555.19 234.74 552.13 235.82 549.17 236.95C543.57 239.13 538.1 241.63 532.8 244.45C494.71 264.71 464.78 301.03 450.05 345.58C448.72 349.61 447.51 353.71 446.43 357.87C449.51 354.27 452.71 350.85 456.03 347.61C479.87 324.29 509.66 310.43 541.97 310.43C545.56 310.43 549.13 310.6 552.66 310.94C568.08 312.41 582.81 317.05 596.46 324.34C603.04 327.85 609.37 331.97 615.4 336.66C618.94 336.83 622.47 337.21 625.98 337.78C651.91 342.49 674.38 326.23 683.74 304.33C689.48 290.89 690.28 275.33 683.89 261.18V261.17Z" fill="url(#paint0_linear_2043_14565)"/>
<path d="M552.661 310.94C549.131 310.6 545.571 310.43 541.971 310.43C509.661 310.43 479.871 324.29 456.031 347.61C491.701 360.86 521.861 393.11 540.651 436.18C538.171 422.74 536.861 408.72 536.861 394.31C536.861 364.25 542.561 335.91 552.661 310.94Z" fill="url(#paint1_linear_2043_14565)"/>
<path d="M440.27 398.34C440.32 411.53 441.99 424.54 445.08 437.13C470.43 467.54 504.5 486.18 541.97 486.18C546.68 486.18 551.33 485.88 555.91 485.31C549.06 470.18 543.87 453.68 540.65 436.19C521.86 393.12 491.7 360.87 456.03 347.62C454.05 346.89 452.06 346.21 450.05 345.6C449.96 345.57 449.87 345.55 449.78 345.52C447.91 348.97 446.35 352.61 445.08 356.39C442.76 363.3 441.47 378.36 441.47 378.36C441.47 378.36 440.26 391.73 440.29 398.35" fill="url(#paint2_linear_2043_14565)"/>
<path d="M601.609 337.299C606.179 336.589 610.849 336.329 615.539 336.439C609.489 331.959 603.009 327.659 596.459 324.339C596.509 324.459 596.409 324.219 596.459 324.339C582.809 317.049 568.079 312.419 552.659 310.939C542.569 335.909 536.859 364.259 536.859 394.309C536.859 408.719 538.179 422.739 540.649 436.179C543.869 453.659 549.059 470.169 555.909 485.299C555.939 485.299 555.979 485.299 556.009 485.289C577.039 482.639 596.709 474.099 614.029 460.989C614.079 460.569 614.129 460.149 614.179 459.719C606.319 460.439 598.719 459.819 590.299 456.569C546.839 440.819 535.319 383.369 569.319 351.919C578.489 343.269 589.829 338.849 601.609 337.299Z" fill="url(#paint3_linear_2043_14565)"/>
<path d="M549.17 236.95C552.13 235.82 555.19 234.74 558.34 233.72C555.24 234.7 552.19 235.78 549.17 236.95Z" fill="url(#paint4_linear_2043_14565)"/>
<path d="M549.17 236.95C552.13 235.82 555.19 234.74 558.34 233.72C555.24 234.7 552.19 235.78 549.17 236.95Z" fill="url(#paint5_linear_2043_14565)"/>
<path d="M364.739 299.67C361.619 298.05 358.389 296.6 355.029 295.36C354.999 295.39 354.969 295.42 354.949 295.44C354.929 295.39 354.909 295.35 354.889 295.3C352.519 294.42 350.089 293.64 347.609 292.97C353.279 295.01 358.759 297.69 363.969 300.97C364.219 300.53 364.489 300.11 364.749 299.67H364.739Z" fill="url(#paint6_linear_2043_14565)"/>
<path d="M535.911 242.7C531.371 244.92 528.501 241.45 524.871 239.28C482.311 214.04 441.981 226.25 406.591 250.52C406.531 250.78 406.471 251.05 406.411 251.31C402.381 268.15 400.211 286.03 400.211 304.56C400.211 317.5 401.281 330.13 403.291 342.31C408.661 341.45 414.111 340.99 419.651 340.99C430.091 340.99 440.261 342.59 450.061 345.59C464.791 301.04 494.721 264.72 532.811 244.46C538.111 241.64 543.581 239.13 549.181 236.96C544.471 238.76 540.011 240.69 535.921 242.71L535.911 242.7Z" fill="url(#paint7_linear_2043_14565)"/>
<path d="M667.951 575.41C668.051 575.17 668.15 574.93 668.25 574.69C667.83 574.9 667.41 575.1 666.98 575.31C667.3 575.34 667.631 575.38 667.951 575.41Z" fill="url(#paint8_linear_2043_14565)"/>
<path d="M683.71 489.02C675.17 468.55 654.75 453.47 624.28 458.21C621.42 458.77 618.64 459.23 615.9 459.55C615.28 460.04 614.65 460.51 614.02 460.99C596.71 474.11 577.03 482.65 556 485.29C556.03 485.42 556.05 485.55 556.08 485.68C556.02 485.55 555.96 485.43 555.9 485.3C551.31 485.87 546.66 486.17 541.96 486.17C504.49 486.17 470.42 467.54 445.07 437.12C459.35 495.29 504.05 544.66 560.39 563.35C564.86 564.83 569.41 566.11 574.02 567.2C594.55 572.03 616.35 572.81 638.59 568.57C639.11 568.47 639.63 568.39 640.15 568.29C657.22 564.98 669.53 556.59 677.41 545.81C689.54 529.24 691.22 507.04 683.7 489.02H683.71Z" fill="url(#paint9_linear_2043_14565)"/>
<path d="M555.92 485.3C555.98 485.43 556.04 485.55 556.1 485.68C556.07 485.55 556.05 485.42 556.02 485.29C555.99 485.29 555.95 485.29 555.92 485.3Z" fill="url(#paint10_linear_2043_14565)"/>
<path d="M555.92 485.3C555.98 485.43 556.04 485.55 556.1 485.68C556.07 485.55 556.05 485.42 556.02 485.29C555.99 485.29 555.95 485.29 555.92 485.3Z" fill="url(#paint11_linear_2043_14565)"/>
<path d="M555.92 485.3C555.98 485.43 556.04 485.55 556.1 485.68C556.07 485.55 556.05 485.42 556.02 485.29C555.99 485.29 555.95 485.29 555.92 485.3Z" fill="url(#paint12_linear_2043_14565)"/>
<path d="M555.92 485.3C555.98 485.43 556.04 485.55 556.1 485.68C556.07 485.55 556.05 485.42 556.02 485.29C555.99 485.29 555.95 485.29 555.92 485.3Z" fill="url(#paint13_linear_2043_14565)"/>
<path d="M555.92 485.3C555.98 485.43 556.04 485.55 556.1 485.68C556.07 485.55 556.05 485.42 556.02 485.29C555.99 485.29 555.95 485.29 555.92 485.3Z" fill="url(#paint14_linear_2043_14565)"/>
<path d="M555.92 485.3C555.98 485.43 556.04 485.55 556.1 485.68C556.07 485.55 556.05 485.42 556.02 485.29C555.99 485.29 555.95 485.29 555.92 485.3Z" fill="url(#paint15_linear_2043_14565)"/>
<path d="M615.911 459.54C615.331 459.61 614.761 459.66 614.181 459.71C614.131 460.13 614.081 460.55 614.031 460.98C614.661 460.5 615.291 460.03 615.911 459.54Z" fill="url(#paint16_linear_2043_14565)"/>
<path d="M615.911 459.54C615.331 459.61 614.761 459.66 614.181 459.71C614.131 460.13 614.081 460.55 614.031 460.98C614.661 460.5 615.291 460.03 615.911 459.54Z" fill="url(#paint17_linear_2043_14565)"/>
<path d="M615.911 459.54C615.331 459.61 614.761 459.66 614.181 459.71C614.131 460.13 614.081 460.55 614.031 460.98C614.661 460.5 615.291 460.03 615.911 459.54Z" fill="url(#paint18_linear_2043_14565)"/>
<path d="M615.911 459.54C615.331 459.61 614.761 459.66 614.181 459.71C614.131 460.13 614.081 460.55 614.031 460.98C614.661 460.5 615.291 460.03 615.911 459.54Z" fill="url(#paint19_linear_2043_14565)"/>
<path d="M615.911 459.54C615.331 459.61 614.761 459.66 614.181 459.71C614.131 460.13 614.081 460.55 614.031 460.98C614.661 460.5 615.291 460.03 615.911 459.54Z" fill="url(#paint20_linear_2043_14565)"/>
<path d="M281.459 412.21C281.819 445.39 277.239 482.24 277.279 514.1C277.099 518.35 277.429 522.46 278.189 526.41C281.069 465.53 303.499 412.16 336.749 378.5C336.769 378.37 336.789 378.25 336.819 378.12C320.619 394.65 301.829 406.5 281.459 412.22V412.21Z" fill="url(#paint21_linear_2043_14565)"/>
<path d="M281.459 412.21C281.819 445.39 277.239 482.24 277.279 514.1C277.099 518.35 277.429 522.46 278.189 526.41C281.069 465.53 303.499 412.16 336.749 378.5C336.769 378.37 336.789 378.25 336.819 378.12C320.619 394.65 301.829 406.5 281.459 412.22V412.21Z" fill="url(#paint22_linear_2043_14565)"/>
<path d="M281.459 412.21C281.819 445.39 277.239 482.24 277.279 514.1C277.099 518.35 277.429 522.46 278.189 526.41C281.069 465.53 303.499 412.16 336.749 378.5C336.769 378.37 336.789 378.25 336.819 378.12C320.619 394.65 301.829 406.5 281.459 412.22V412.21Z" fill="url(#paint23_linear_2043_14565)"/>
<path d="M252.281 325.31C218.251 325.57 187.051 342.63 162.711 370.9C134.611 403.52 115.641 451.05 111.961 504.84C112.331 514.92 113.211 524.46 117.001 534.17C141.791 594.9 225.261 574.55 225.631 515.13C225.651 511.17 225.311 507.03 224.551 502.74C222.761 491.67 221.641 480.71 221.081 469.79C220.091 450.56 220.841 431.43 222.831 411.95C222.871 411.56 222.911 411.17 222.951 410.78C223.091 409.44 223.231 408.11 223.381 406.77C224.081 400.62 224.901 391.66 226.491 382.37C228.751 371.83 232.011 361.85 236.121 352.59C240.581 342.56 246.041 333.39 252.321 325.31C252.301 325.31 252.291 325.31 252.271 325.31H252.281Z" fill="url(#paint24_linear_2043_14565)"/>
<path d="M112.371 504.44C116.051 450.65 135.021 403.11 163.121 370.49C135.021 403.11 116.051 450.64 112.371 504.44Z" fill="url(#paint25_linear_2043_14565)"/>
<path d="M112.371 504.44C116.051 450.65 135.021 403.11 163.121 370.49C135.021 403.11 116.051 450.64 112.371 504.44Z" fill="url(#paint26_linear_2043_14565)"/>
<path d="M391.709 261.6C380.289 270.76 369.469 280.88 359.369 290.98C358.019 292.33 356.679 293.68 355.359 295.02C331.129 242.66 275.099 212.17 220.009 230.8C202.479 237.88 187.759 248.08 175.389 260.56C157.239 278.73 144.149 301.81 134.749 327.24C115.159 380.24 111.579 443.41 111.629 493.56C111.749 497.42 111.819 501.16 111.959 504.84C115.639 451.05 134.609 403.51 162.709 370.89C162.839 370.74 162.969 370.6 163.089 370.45C163.089 370.45 163.109 370.47 163.109 370.48C165.389 367.84 167.719 365.29 170.119 362.85C193.239 339.42 221.609 325.54 252.279 325.3C252.389 325.16 252.499 325.03 252.619 324.89C252.639 324.89 252.669 324.89 252.689 324.89C253.019 324.48 253.349 324.09 253.679 323.69C256.359 320.34 259.179 317.19 262.129 314.25C278.619 297.98 299.149 288.34 321.389 288.34C330.469 288.34 339.249 289.96 347.599 292.96C349.809 293.56 351.969 294.26 354.099 295.02C357.619 296.62 361.039 298.46 364.369 300.54C372.149 287.09 381.149 275.08 391.149 264.87C396.009 259.91 401.109 255.36 406.409 251.28C406.469 251.02 406.529 250.75 406.589 250.49C401.529 253.96 396.559 257.68 391.709 261.58V261.6Z" fill="url(#paint27_linear_2043_14565)"/>
<path d="M252.691 324.899C218.661 325.159 187.461 342.219 163.121 370.489C187.461 342.229 218.661 325.159 252.691 324.899Z" fill="url(#paint28_linear_2043_14565)"/>
<path d="M252.689 324.9C252.689 324.9 252.719 324.9 252.739 324.9C253.049 324.5 253.359 324.09 253.679 323.7C253.349 324.1 253.019 324.5 252.689 324.9Z" fill="url(#paint29_linear_2043_14565)"/>
<path d="M252.689 324.9C252.689 324.9 252.719 324.9 252.739 324.9C253.049 324.5 253.359 324.09 253.679 323.7C253.349 324.1 253.019 324.5 252.689 324.9Z" fill="url(#paint30_linear_2043_14565)"/>
<path d="M252.689 324.9C252.689 324.9 252.719 324.9 252.739 324.9C253.049 324.5 253.359 324.09 253.679 323.7C253.349 324.1 253.019 324.5 252.689 324.9Z" fill="url(#paint31_linear_2043_14565)"/>
<path d="M253.679 323.7C253.349 324.1 253.019 324.5 252.689 324.9C253.019 324.49 253.349 324.1 253.679 323.7Z" fill="url(#paint32_linear_2043_14565)"/>
<path d="M253.679 323.7C253.349 324.1 253.019 324.5 252.689 324.9C253.019 324.49 253.349 324.1 253.679 323.7Z" fill="url(#paint33_linear_2043_14565)"/>
<path d="M253.679 323.7C253.349 324.1 253.019 324.5 252.689 324.9C253.019 324.49 253.349 324.1 253.679 323.7Z" fill="url(#paint34_linear_2043_14565)"/>
<path d="M253.679 323.7C253.349 324.1 253.019 324.5 252.689 324.9C253.019 324.49 253.349 324.1 253.679 323.7Z" fill="url(#paint35_linear_2043_14565)"/>
<path d="M367.071 299.31C363.951 297.69 358.721 296.24 355.361 295C355.311 294.98 355.261 294.97 355.211 294.95C354.951 294.86 354.691 294.77 354.431 294.68C354.311 294.62 354.181 294.57 354.061 294.52C353.551 294.29 353.031 294.06 352.521 293.84C352.101 293.66 351.681 293.5 351.261 293.33C350.921 293.19 350.581 293.06 350.241 292.92C349.821 292.76 349.411 292.6 348.991 292.44C348.621 292.3 348.261 292.17 347.891 292.04C347.431 291.88 346.961 291.71 346.501 291.56C345.881 291.35 345.261 291.15 344.631 290.96C344.261 290.85 343.891 290.74 343.521 290.63C343.091 290.51 342.661 290.38 342.231 290.27C341.861 290.17 341.501 290.07 341.131 289.98C340.621 289.85 340.111 289.73 339.611 289.61C339.321 289.54 339.041 289.47 338.751 289.41C337.991 289.24 337.231 289.09 336.471 288.94C336.171 288.88 335.871 288.83 335.561 288.78C335.021 288.68 334.481 288.59 333.931 288.51C333.631 288.46 333.331 288.42 333.031 288.37C332.341 288.27 331.651 288.18 330.961 288.1C330.821 288.08 330.691 288.06 330.551 288.05C329.731 287.96 328.911 287.88 328.081 287.82C327.831 287.8 327.571 287.78 327.321 287.77C326.701 287.73 326.081 287.69 325.451 287.67C325.201 287.66 324.941 287.65 324.681 287.64C323.831 287.61 322.981 287.59 322.131 287.59C295.711 287.59 271.381 301.556 253.681 323.706C253.681 323.706 253.681 323.706 253.691 323.696C254.411 322.826 255.141 321.976 255.871 321.146C255.131 321.996 254.391 322.846 253.671 323.726C253.351 324.126 253.041 324.526 252.731 324.926C246.451 333.006 240.981 342.176 236.531 352.206C240.071 346.586 244.661 342.746 250.681 342.126C268.311 340.316 274.461 358.316 277.641 372.836C280.271 384.876 281.301 398.226 281.451 412.236C301.821 406.516 322.941 394.32 339.141 377.78C339.891 373.52 340.731 369.32 341.661 365.17C346.781 342.56 354.701 321.7 364.861 303.4C365.461 302.33 366.081 301.28 366.691 300.23C366.651 300.21 366.611 300.18 366.571 300.16C366.731 299.89 366.901 299.62 367.061 299.34L367.071 299.31ZM256.411 320.516C257.141 319.686 257.891 318.866 258.641 318.066C258.641 318.066 258.651 318.046 258.661 318.046C259.451 317.206 260.261 316.386 261.071 315.576C259.481 317.156 257.931 318.806 256.411 320.516ZM261.451 315.206C262.251 314.416 263.061 313.636 263.881 312.876C263.061 313.636 262.251 314.426 261.441 315.216L261.451 315.206Z" fill="url(#paint36_linear_2043_14565)"/>
<path d="M419.64 340.98C414.11 340.98 408.65 341.44 403.28 342.3C402.95 342.35 402.62 342.42 402.3 342.47C400.72 342.74 399.14 343.03 397.58 343.37C378.31 347.59 360.33 357.26 344.46 371.21C341.84 373.52 339.27 375.94 336.76 378.47C334.13 393.6 332.73 409.4 332.73 425.67C332.73 467.04 341.75 505.45 357.18 537.26C360.61 544.33 364.35 551.09 368.39 557.47C368.47 557.6 368.56 557.74 368.64 557.87C371.12 555.83 373.42 553.59 375.52 551.18C383.89 541.53 388.94 529.07 388.7 515.08C388.68 513.93 388.68 512.76 388.68 511.6C388.65 500.07 389.46 488.06 391.14 475.9C394.92 448.53 403.14 420.48 416.27 395.86C416.84 394.79 417.42 393.72 418.01 392.67C418.17 392.38 418.34 392.1 418.5 391.82C425.9 378.72 434.73 366.68 445.09 356.36C446.36 352.58 447.93 348.95 449.79 345.49C440.08 342.54 430 340.97 419.65 340.97L419.64 340.98Z" fill="url(#paint37_linear_2043_14565)"/>
<path d="M406.401 251.3C401.101 255.38 396.001 259.92 391.141 264.89C386.141 269.99 381.391 275.55 376.921 281.51C372.451 287.47 368.251 293.83 364.361 300.56C363.751 301.62 363.131 302.66 362.531 303.73C352.371 322.03 344.451 342.89 339.331 365.5C338.391 369.64 337.551 373.85 336.811 378.11C320.611 394.64 301.821 406.49 281.451 412.21C281.811 445.39 277.231 482.24 277.271 514.1C277.091 518.35 277.421 522.46 278.181 526.41C278.681 528.97 279.381 531.45 280.241 533.86C290.681 563.23 326.461 580.2 356.191 565.8C356.911 565.45 357.641 565.09 358.351 564.7C362.021 562.78 365.461 560.5 368.611 557.91C368.531 557.78 368.441 557.64 368.361 557.51C364.321 551.13 360.581 544.37 357.151 537.3C341.721 505.49 332.701 467.08 332.701 425.71C332.701 409.44 334.101 393.64 336.731 378.51C339.241 375.97 341.801 373.55 344.431 371.25C360.301 357.3 378.281 347.63 397.551 343.41C399.121 343.07 400.691 342.77 402.271 342.51C402.601 342.45 402.931 342.39 403.251 342.34C401.241 330.16 400.171 317.54 400.171 304.59C400.171 286.06 402.341 268.18 406.371 251.34L406.401 251.3Z" fill="url(#paint38_linear_2043_14565)"/>
<defs>
<linearGradient id="paint0_linear_2043_14565" x1="446.63" y1="357.59" x2="471.454" y2="131.658" gradientUnits="userSpaceOnUse">
<stop stop-color="#BB2A61"/>
<stop offset="1" stop-color="#F9A447"/>
</linearGradient>
<linearGradient id="paint1_linear_2043_14565" x1="456.304" y1="430.429" x2="564.009" y2="382.669" gradientUnits="userSpaceOnUse">
<stop stop-color="#F9A447"/>
<stop offset="1" stop-color="#BB2A61"/>
</linearGradient>
<linearGradient id="paint2_linear_2043_14565" x1="440.595" y1="479.746" x2="566.498" y2="420.017" gradientUnits="userSpaceOnUse">
<stop stop-color="#F9A447"/>
<stop offset="1" stop-color="#BB2A61"/>
</linearGradient>
<linearGradient id="paint3_linear_2043_14565" x1="678.629" y1="398.59" x2="536.865" y2="398.119" gradientUnits="userSpaceOnUse">
<stop stop-color="#F9A447"/>
<stop offset="1" stop-color="#BB2A61"/>
</linearGradient>
<linearGradient id="paint4_linear_2043_14565" x1="553.755" y1="236.95" x2="553.755" y2="233.72" gradientUnits="userSpaceOnUse">
<stop offset="0.5" stop-color="#BB2A61"/>
<stop offset="1" stop-color="#F9A447"/>
</linearGradient>
<linearGradient id="paint5_linear_2043_14565" x1="553.755" y1="236.95" x2="553.755" y2="233.72" gradientUnits="userSpaceOnUse">
<stop offset="0.5" stop-color="#BB2A61"/>
<stop offset="1" stop-color="#F9A447"/>
</linearGradient>
<linearGradient id="paint6_linear_2043_14565" x1="356.179" y1="300.97" x2="356.179" y2="292.97" gradientUnits="userSpaceOnUse">
<stop offset="0.5" stop-color="#BB2A61"/>
<stop offset="1" stop-color="#F9A447"/>
</linearGradient>
<linearGradient id="paint7_linear_2043_14565" x1="301.131" y1="329.09" x2="532.131" y2="246.09" gradientUnits="userSpaceOnUse">
<stop stop-color="#F9A447"/>
<stop offset="1" stop-color="#BB2A61"/>
</linearGradient>
<linearGradient id="paint8_linear_2043_14565" x1="666.979" y1="575.028" x2="667.231" y2="574.342" gradientUnits="userSpaceOnUse">
<stop stop-color="#BB2A61"/>
<stop offset="1" stop-color="#F9A447"/>
</linearGradient>
<linearGradient id="paint9_linear_2043_14565" x1="444.863" y1="500.001" x2="490.837" y2="371.438" gradientUnits="userSpaceOnUse">
<stop stop-color="#BB2A61"/>
<stop offset="1" stop-color="#F9A447"/>
</linearGradient>
<linearGradient id="paint10_linear_2043_14565" x1="556.01" y1="485.68" x2="556.01" y2="485.29" gradientUnits="userSpaceOnUse">
<stop offset="0.5" stop-color="#BB2A61"/>
<stop offset="1" stop-color="#F9A447"/>
</linearGradient>
<linearGradient id="paint11_linear_2043_14565" x1="556.01" y1="485.68" x2="556.01" y2="485.29" gradientUnits="userSpaceOnUse">
<stop offset="0.5" stop-color="#BB2A61"/>
<stop offset="1" stop-color="#F9A447"/>
</linearGradient>
<linearGradient id="paint12_linear_2043_14565" x1="556.01" y1="485.68" x2="556.01" y2="485.29" gradientUnits="userSpaceOnUse">
<stop offset="0.5" stop-color="#BB2A61"/>
<stop offset="1" stop-color="#F9A447"/>
</linearGradient>
<linearGradient id="paint13_linear_2043_14565" x1="556.01" y1="485.68" x2="556.01" y2="485.29" gradientUnits="userSpaceOnUse">
<stop offset="0.5" stop-color="#BB2A61"/>
<stop offset="1" stop-color="#F9A447"/>
</linearGradient>
<linearGradient id="paint14_linear_2043_14565" x1="556.01" y1="485.68" x2="556.01" y2="485.29" gradientUnits="userSpaceOnUse">
<stop offset="0.5" stop-color="#BB2A61"/>
<stop offset="1" stop-color="#F9A447"/>
</linearGradient>
<linearGradient id="paint15_linear_2043_14565" x1="556.01" y1="485.68" x2="556.01" y2="485.29" gradientUnits="userSpaceOnUse">
<stop offset="0.5" stop-color="#BB2A61"/>
<stop offset="1" stop-color="#F9A447"/>
</linearGradient>
<linearGradient id="paint16_linear_2043_14565" x1="614.971" y1="460.98" x2="614.971" y2="459.54" gradientUnits="userSpaceOnUse">
<stop offset="0.5" stop-color="#BB2A61"/>
<stop offset="1" stop-color="#F9A447"/>
</linearGradient>
<linearGradient id="paint17_linear_2043_14565" x1="614.971" y1="460.98" x2="614.971" y2="459.54" gradientUnits="userSpaceOnUse">
<stop offset="0.5" stop-color="#BB2A61"/>
<stop offset="1" stop-color="#F9A447"/>
</linearGradient>
<linearGradient id="paint18_linear_2043_14565" x1="614.971" y1="460.98" x2="614.971" y2="459.54" gradientUnits="userSpaceOnUse">
<stop offset="0.5" stop-color="#BB2A61"/>
<stop offset="1" stop-color="#F9A447"/>
</linearGradient>
<linearGradient id="paint19_linear_2043_14565" x1="614.971" y1="460.98" x2="614.971" y2="459.54" gradientUnits="userSpaceOnUse">
<stop offset="0.5" stop-color="#BB2A61"/>
<stop offset="1" stop-color="#F9A447"/>
</linearGradient>
<linearGradient id="paint20_linear_2043_14565" x1="614.971" y1="460.98" x2="614.971" y2="459.54" gradientUnits="userSpaceOnUse">
<stop offset="0.5" stop-color="#BB2A61"/>
<stop offset="1" stop-color="#F9A447"/>
</linearGradient>
<linearGradient id="paint21_linear_2043_14565" x1="307.025" y1="526.41" x2="307.025" y2="378.12" gradientUnits="userSpaceOnUse">
<stop offset="0.5" stop-color="#BB2A61"/>
<stop offset="1" stop-color="#F9A447"/>
</linearGradient>
<linearGradient id="paint22_linear_2043_14565" x1="307.025" y1="526.41" x2="307.025" y2="378.12" gradientUnits="userSpaceOnUse">
<stop offset="0.5" stop-color="#BB2A61"/>
<stop offset="1" stop-color="#F9A447"/>
</linearGradient>
<linearGradient id="paint23_linear_2043_14565" x1="307.025" y1="526.41" x2="307.025" y2="378.12" gradientUnits="userSpaceOnUse">
<stop offset="0.5" stop-color="#BB2A61"/>
<stop offset="1" stop-color="#F9A447"/>
</linearGradient>
<linearGradient id="paint24_linear_2043_14565" x1="182.141" y1="570.894" x2="285.131" y2="288.09" gradientUnits="userSpaceOnUse">
<stop offset="0.326923" stop-color="#BB2A61"/>
<stop offset="1" stop-color="#F9A447"/>
</linearGradient>
<linearGradient id="paint25_linear_2043_14565" x1="137.746" y1="504.44" x2="137.746" y2="370.49" gradientUnits="userSpaceOnUse">
<stop offset="0.5" stop-color="#BB2A61"/>
<stop offset="1" stop-color="#F9A447"/>
</linearGradient>
<linearGradient id="paint26_linear_2043_14565" x1="137.746" y1="504.44" x2="137.746" y2="370.49" gradientUnits="userSpaceOnUse">
<stop offset="0.5" stop-color="#BB2A61"/>
<stop offset="1" stop-color="#F9A447"/>
</linearGradient>
<linearGradient id="paint27_linear_2043_14565" x1="235.63" y1="225.59" x2="68.6299" y2="469.589" gradientUnits="userSpaceOnUse">
<stop stop-color="#BB2A61"/>
<stop offset="1" stop-color="#F9A447"/>
</linearGradient>
<linearGradient id="paint28_linear_2043_14565" x1="207.906" y1="370.489" x2="207.906" y2="324.899" gradientUnits="userSpaceOnUse">
<stop offset="0.5" stop-color="#BB2A61"/>
<stop offset="1" stop-color="#F9A447"/>
</linearGradient>
<linearGradient id="paint29_linear_2043_14565" x1="253.184" y1="324.9" x2="253.184" y2="323.7" gradientUnits="userSpaceOnUse">
<stop offset="0.5" stop-color="#BB2A61"/>
<stop offset="1" stop-color="#F9A447"/>
</linearGradient>
<linearGradient id="paint30_linear_2043_14565" x1="253.184" y1="324.9" x2="253.184" y2="323.7" gradientUnits="userSpaceOnUse">
<stop offset="0.5" stop-color="#BB2A61"/>
<stop offset="1" stop-color="#F9A447"/>
</linearGradient>
<linearGradient id="paint31_linear_2043_14565" x1="253.184" y1="324.9" x2="253.184" y2="323.7" gradientUnits="userSpaceOnUse">
<stop offset="0.5" stop-color="#BB2A61"/>
<stop offset="1" stop-color="#F9A447"/>
</linearGradient>
<linearGradient id="paint32_linear_2043_14565" x1="253.184" y1="324.9" x2="253.184" y2="323.7" gradientUnits="userSpaceOnUse">
<stop offset="0.5" stop-color="#BB2A61"/>
<stop offset="1" stop-color="#F9A447"/>
</linearGradient>
<linearGradient id="paint33_linear_2043_14565" x1="253.184" y1="324.9" x2="253.184" y2="323.7" gradientUnits="userSpaceOnUse">
<stop offset="0.5" stop-color="#BB2A61"/>
<stop offset="1" stop-color="#F9A447"/>
</linearGradient>
<linearGradient id="paint34_linear_2043_14565" x1="253.184" y1="324.9" x2="253.184" y2="323.7" gradientUnits="userSpaceOnUse">
<stop offset="0.5" stop-color="#BB2A61"/>
<stop offset="1" stop-color="#F9A447"/>
</linearGradient>
<linearGradient id="paint35_linear_2043_14565" x1="253.184" y1="324.9" x2="253.184" y2="323.7" gradientUnits="userSpaceOnUse">
<stop offset="0.5" stop-color="#BB2A61"/>
<stop offset="1" stop-color="#F9A447"/>
</linearGradient>
<linearGradient id="paint36_linear_2043_14565" x1="320.631" y1="92.5889" x2="301.801" y2="412.233" gradientUnits="userSpaceOnUse">
<stop stop-color="#F9A447"/>
<stop offset="1" stop-color="#BB2A61"/>
</linearGradient>
<linearGradient id="paint37_linear_2043_14565" x1="340.631" y1="557.59" x2="447.871" y2="346.59" gradientUnits="userSpaceOnUse">
<stop stop-color="#F9A447"/>
<stop offset="1" stop-color="#BB2A61"/>
</linearGradient>
<linearGradient id="paint38_linear_2043_14565" x1="439.131" y1="59.0899" x2="341.812" y2="571.005" gradientUnits="userSpaceOnUse">
<stop stop-color="#F9A447"/>
<stop offset="1" stop-color="#BB2A61"/>
</linearGradient>
</defs>
</svg>
